# xmcd
#
# Track frame offsets:
# 150
# 20373
# 36668
# 50464
# 68193
# 82892
# 97562
# 111401
# 126337
# 141528
# 155599
# 170333
# 186253
# 201058
# 217917
# 232578
# 247522
# 262761
# 278468
# 295891
#
# Disc length: 4175 seconds
#
# Revision: 0
# Processed by: cddbd v1.5.1PL0 Copyright (c) Steve Scherf et al.
# Submitted via: Axialis_AX_CDPlayer 2.6
#
DISCID=0c104d14
DTITLE=Kelly Marie Walsh - Mis
DYEAR=1900
DGENRE=
TTITLE0=TRAGEDY
TTITLE1=YMCA
TTITLE2=TELETUBBIES SAY EN-ON
TTITLE3=BARBIE GIRL
TTITLE4=BRING IT ALL BACK
TTITLE5=C'EST LA VIE 
TTITLE6=MYSTERIOUS GIRL
TTITLE7=STOP
TTITLE8=BABY ONE MORE TIME
TTITLE9=WITCH DOCTOR
TTITLE10=ROLLERCOASTER
TTITLE11=(OOH AH) JUST ALITTLE BIT
TTITLE12=THE LOCO-MOTION
TTITLE13=SATERDAT NIGHT
TTITLE14=MOVING ON UP
TTITLE15=HANDS UP
TTITLE16=DO THE CONGA
TTITLE17=AGADOO
TTITLE18=THE TIME WARP
TTITLE19=D.I.S.C.O.
EXTD=
EXTT0=
EXTT1=
EXTT2=
EXTT3=
EXTT4=
EXTT5=
EXTT6=
EXTT7=
EXTT8=
EXTT9=
EXTT10=
EXTT11=
EXTT12=
EXTT13=
EXTT14=
EXTT15=
EXTT16=
EXTT17=
EXTT18=
EXTT19=
PLAYORDER=
